# This file uses centimeters as units for non-parametric coordinates.

mtllib RebanadaPizza.mtl
g default
v -0.790583 0.082576 -0.429139
v -0.856062 0.082576 -0.237206
v -0.880202 0.082576 -0.035853
v -0.861952 0.082576 0.166119
v -0.802109 0.082576 0.359882
v -0.794765 0.112608 -0.431073
v -0.860551 0.112608 -0.238229
v -0.884806 0.112608 -0.035920
v -0.866470 0.112608 0.167010
v -0.806343 0.112608 0.361694
v -0.806892 0.139700 -0.436687
v -0.873582 0.139700 -0.241198
v -0.898171 0.139700 -0.036115
v -0.879582 0.139700 0.169598
v -0.818631 0.139700 0.366951
v -0.825784 0.161201 -0.445431
v -0.893879 0.161201 -0.245823
v -0.918986 0.161201 -0.036420
v -0.900005 0.161201 0.173628
v -0.837770 0.161201 0.375140
v -0.849588 0.175005 -0.456449
v -0.919454 0.175005 -0.251651
v -0.945213 0.175005 -0.036803
v -0.925741 0.175005 0.178707
v -0.861885 0.175005 0.385457
v -0.875976 0.179762 -0.468662
v -0.947805 0.179762 -0.258111
v -0.974286 0.179762 -0.037227
v -0.954268 0.179762 0.184336
v -0.888619 0.179762 0.396895
v -0.902363 0.175005 -0.480875
v -0.976154 0.175005 -0.264571
v -1.003362 0.175005 -0.037652
v -0.982793 0.175005 0.189965
v -0.915351 0.175005 0.408333
v -0.926169 0.161201 -0.491893
v -1.001730 0.161201 -0.270399
v -1.029589 0.161201 -0.038035
v -1.008529 0.161201 0.195043
v -0.939467 0.161201 0.418650
v -0.945059 0.139700 -0.500637
v -1.022026 0.139700 -0.275024
v -1.050403 0.139700 -0.038339
v -1.028951 0.139700 0.199073
v -0.958607 0.139700 0.426838
v -0.957188 0.112608 -0.506250
v -1.035057 0.112608 -0.277993
v -1.063767 0.112608 -0.038534
v -1.042064 0.112608 0.201661
v -0.970894 0.112608 0.432095
v -0.961368 0.082576 -0.508185
v -1.039548 0.082576 -0.279016
v -1.068373 0.082576 -0.038602
v -1.046582 0.082576 0.202553
v -0.975128 0.082576 0.433906
v -0.957188 0.052544 -0.506250
v -1.035057 0.052544 -0.277993
v -1.063767 0.052544 -0.038534
v -1.042064 0.052544 0.201661
v -0.970894 0.052544 0.432095
v -0.945059 0.025452 -0.500637
v -1.022026 0.025452 -0.275024
v -1.050403 0.025452 -0.038339
v -1.028951 0.025452 0.199073
v -0.958607 0.025452 0.426838
v -0.926169 0.003952 -0.491893
v -1.001730 0.003952 -0.270399
v -1.029589 0.003952 -0.038035
v -1.008529 0.003952 0.195043
v -0.939467 0.003952 0.418650
v -0.902363 -0.009852 -0.480875
v -0.976154 -0.009852 -0.264571
v -1.003362 -0.009852 -0.037652
v -0.982793 -0.009852 0.189965
v -0.915351 -0.009852 0.408333
v -0.875976 -0.014609 -0.468662
v -0.947805 -0.014609 -0.258111
v -0.974286 -0.014609 -0.037227
v -0.954268 -0.014609 0.184336
v -0.888619 -0.014609 0.396895
v -0.849588 -0.009852 -0.456449
v -0.919454 -0.009852 -0.251651
v -0.945213 -0.009852 -0.036803
v -0.925741 -0.009852 0.178707
v -0.861885 -0.009852 0.385457
v -0.825784 0.003952 -0.445431
v -0.893879 0.003952 -0.245823
v -0.918986 0.003952 -0.036420
v -0.900005 0.003952 0.173628
v -0.837770 0.003952 0.375140
v -0.806892 0.025452 -0.436687
v -0.873582 0.025452 -0.241198
v -0.898171 0.025452 -0.036115
v -0.879582 0.025452 0.169598
v -0.818631 0.025452 0.366951
v -0.794765 0.052544 -0.431073
v -0.860551 0.052544 -0.238229
v -0.884806 0.052544 -0.035920
v -0.866470 0.052544 0.167010
v -0.806343 0.052544 0.361694
v -0.882074 0.013594 -0.471517
v -0.984965 0.013594 -0.189109
v -0.995015 0.013594 0.113212
v -0.911238 0.013594 0.405851
v -0.882074 0.104348 -0.471517
v -0.984965 0.104348 -0.189109
v -0.995015 0.104348 0.113212
v -0.911238 0.104348 0.405851
v -0.036506 0.013594 0.014307
v -0.036506 0.104348 0.014307
vt 0.066667 1.000000
vt 0.033333 1.000000
vt 0.033333 0.950000
vt 0.066667 0.950000
vt 0.100000 1.000000
vt 0.100000 0.950000
vt 0.133333 1.000000
vt 0.133333 0.950000
vt 0.166667 1.000000
vt 0.166667 0.950000
vt 0.033333 0.900000
vt 0.066667 0.900000
vt 0.100000 0.900000
vt 0.133333 0.900000
vt 0.166667 0.900000
vt 0.033333 0.850000
vt 0.066667 0.850000
vt 0.100000 0.850000
vt 0.133333 0.850000
vt 0.166667 0.850000
vt 0.033333 0.800000
vt 0.066667 0.800000
vt 0.100000 0.800000
vt 0.133333 0.800000
vt 0.166667 0.800000
vt 0.033333 0.750000
vt 0.066667 0.750000
vt 0.100000 0.750000
vt 0.133333 0.750000
vt 0.166667 0.750000
vt 0.033333 0.700000
vt 0.066667 0.700000
vt 0.100000 0.700000
vt 0.133333 0.700000
vt 0.166667 0.700000
vt 0.033333 0.650000
vt 0.066667 0.650000
vt 0.100000 0.650000
vt 0.133333 0.650000
vt 0.166667 0.650000
vt 0.033333 0.600000
vt 0.066667 0.600000
vt 0.100000 0.600000
vt 0.133333 0.600000
vt 0.166667 0.600000
vt 0.033333 0.550000
vt 0.066667 0.550000
vt 0.100000 0.550000
vt 0.133333 0.550000
vt 0.166667 0.550000
vt 0.033333 0.500000
vt 0.066667 0.500000
vt 0.100000 0.500000
vt 0.133333 0.500000
vt 0.166667 0.500000
vt 0.033333 0.450000
vt 0.066667 0.450000
vt 0.100000 0.450000
vt 0.133333 0.450000
vt 0.166667 0.450000
vt 0.033333 0.400000
vt 0.066667 0.400000
vt 0.100000 0.400000
vt 0.133333 0.400000
vt 0.166667 0.400000
vt 0.033333 0.350000
vt 0.066667 0.350000
vt 0.100000 0.350000
vt 0.133333 0.350000
vt 0.166667 0.350000
vt 0.033333 0.300000
vt 0.066667 0.300000
vt 0.100000 0.300000
vt 0.133333 0.300000
vt 0.166667 0.300000
vt 0.033333 0.250000
vt 0.066667 0.250000
vt 0.100000 0.250000
vt 0.133333 0.250000
vt 0.166667 0.250000
vt 0.033333 0.200000
vt 0.066667 0.200000
vt 0.100000 0.200000
vt 0.133333 0.200000
vt 0.166667 0.200000
vt 0.033333 0.150000
vt 0.066667 0.150000
vt 0.100000 0.150000
vt 0.133333 0.150000
vt 0.166667 0.150000
vt 0.033333 0.100000
vt 0.066667 0.100000
vt 0.100000 0.100000
vt 0.133333 0.100000
vt 0.166667 0.100000
vt 0.033333 0.050000
vt 0.066667 0.050000
vt 0.100000 0.050000
vt 0.133333 0.050000
vt 0.166667 0.050000
vt 0.033333 -0.000000
vt 0.066667 -0.000000
vt 0.100000 -0.000000
vt 0.133333 -0.000000
vt 0.166667 -0.000000
vt 0.375000 0.312500
vt 0.387500 0.312500
vt 0.387500 0.687500
vt 0.375000 0.687500
vt 0.400000 0.312500
vt 0.400000 0.687500
vt 0.540528 0.033983
vt 0.551945 0.979781
vt 0.626409 0.064408
vt 0.648603 0.107966
vt 0.500000 0.156250
vt 0.591842 0.029841
vt 0.540528 0.033983
vt 0.591842 0.029841
vt 0.500000 0.156250
vt 0.076492 0.107038
vt 0.396804 0.015911
vt 0.453549 1.044352
vt 0.396804 0.015911
vt 0.722671 0.025455
vt 0.453549 1.044352
vt 0.722671 0.025455
vt 0.941343 0.174288
vt 0.453549 1.044352
vt 0.540528 0.033983
vt 0.500000 0.156250
vt 0.500000 0.843750
vt 0.551945 0.979781
vn 0.975007 0.000002 0.222175
vn 0.946442 0.000002 0.322873
vn 0.902211 0.302134 0.307784
vn 0.928972 0.303645 0.211685
vn 0.999893 0.000001 0.014604
vn 0.975007 0.000002 0.222175
vn 0.928972 0.303645 0.211685
vn 0.952684 0.303645 0.013915
vn 0.981080 0.000001 -0.193604
vn 0.999893 0.000001 0.014604
vn 0.952684 0.303645 0.013915
vn 0.934758 0.303645 -0.184463
vn 0.955468 0.000000 -0.295095
vn 0.981080 0.000001 -0.193604
vn 0.934758 0.303645 -0.184463
vn 0.910815 0.302134 -0.281303
vn 0.928972 0.303645 0.211685
vn 0.902211 0.302134 0.307784
vn 0.771564 0.579143 0.263215
vn 0.793383 0.581257 0.180789
vn 0.952684 0.303645 0.013915
vn 0.928972 0.303645 0.211685
vn 0.793383 0.581257 0.180789
vn 0.813633 0.581257 0.011884
vn 0.934758 0.303645 -0.184463
vn 0.952684 0.303645 0.013915
vn 0.813633 0.581257 0.011884
vn 0.798324 0.581258 -0.157540
vn 0.910815 0.302134 -0.281303
vn 0.934758 0.303645 -0.184463
vn 0.798324 0.581258 -0.157540
vn 0.778922 0.579143 -0.240568
vn 0.793383 0.581257 0.180789
vn 0.771564 0.579143 0.263215
vn 0.562290 0.804384 0.191822
vn 0.577202 0.805940 0.131527
vn 0.813633 0.581257 0.011884
vn 0.793383 0.581257 0.180789
vn 0.577202 0.805940 0.131527
vn 0.591935 0.805940 0.008646
vn 0.798324 0.581258 -0.157540
vn 0.813633 0.581257 0.011884
vn 0.591935 0.805940 0.008646
vn 0.580797 0.805940 -0.114613
vn 0.778922 0.579143 -0.240568
vn 0.798324 0.581258 -0.157540
vn 0.580797 0.805940 -0.114613
vn 0.567653 0.804384 -0.175318
vn 0.577202 0.805940 0.131527
vn 0.562290 0.804384 0.191822
vn 0.291530 0.951377 0.099454
vn 0.298839 0.951871 0.068097
vn 0.591935 0.805940 0.008646
vn 0.577202 0.805940 0.131527
vn 0.298839 0.951871 0.068097
vn 0.306467 0.951871 0.004476
vn 0.580797 0.805940 -0.114613
vn 0.591935 0.805940 0.008646
vn 0.306467 0.951871 0.004476
vn 0.300701 0.951871 -0.059339
vn 0.567653 0.804384 -0.175318
vn 0.580797 0.805940 -0.114613
vn 0.300701 0.951871 -0.059339
vn 0.294311 0.951377 -0.090897
vn 0.298839 0.951871 0.068097
vn 0.291530 0.951377 0.099454
vn -0.012357 0.999915 -0.004215
vn -0.012660 0.999916 -0.002884
vn 0.306467 0.951871 0.004476
vn 0.298839 0.951871 0.068097
vn -0.012660 0.999916 -0.002884
vn -0.012983 0.999916 -0.000189
vn 0.300701 0.951871 -0.059339
vn 0.306467 0.951871 0.004476
vn -0.012983 0.999916 -0.000189
vn -0.012738 0.999916 0.002513
vn 0.294311 0.951377 -0.090897
vn 0.300701 0.951871 -0.059339
vn -0.012738 0.999916 0.002513
vn -0.012474 0.999915 0.003853
vn -0.012660 0.999916 -0.002884
vn -0.012357 0.999915 -0.004215
vn -0.313585 0.943515 -0.106978
vn -0.321472 0.944081 -0.073254
vn -0.012983 0.999916 -0.000189
vn -0.012660 0.999916 -0.002884
vn -0.321472 0.944081 -0.073254
vn -0.329678 0.944081 -0.004815
vn -0.012738 0.999916 0.002513
vn -0.012983 0.999916 -0.000189
vn -0.329678 0.944081 -0.004815
vn -0.323475 0.944081 0.063834
vn -0.012474 0.999915 0.003853
vn -0.012738 0.999916 0.002513
vn -0.323475 0.944081 0.063834
vn -0.316575 0.943515 0.097773
vn -0.321472 0.944081 -0.073254
vn -0.313585 0.943515 -0.106978
vn -0.577704 0.792097 -0.197080
vn -0.593087 0.793715 -0.135147
vn -0.329678 0.944081 -0.004815
vn -0.321472 0.944081 -0.073254
vn -0.593087 0.793715 -0.135147
vn -0.608225 0.793715 -0.008884
vn -0.323475 0.944081 0.063834
vn -0.329678 0.944081 -0.004815
vn -0.608225 0.793715 -0.008884
vn -0.596781 0.793715 0.117767
vn -0.316575 0.943515 0.097773
vn -0.323475 0.944081 0.063834
vn -0.596781 0.793715 0.117767
vn -0.583212 0.792098 0.180124
vn -0.593087 0.793715 -0.135147
vn -0.577704 0.792097 -0.197080
vn -0.779365 0.567363 -0.265876
vn -0.801463 0.569476 -0.182629
vn -0.608225 0.793715 -0.008884
vn -0.593087 0.793715 -0.135147
vn -0.801463 0.569476 -0.182629
vn -0.821920 0.569476 -0.012006
vn -0.596781 0.793715 0.117767
vn -0.608225 0.793715 -0.008884
vn -0.821920 0.569476 -0.012006
vn -0.806455 0.569476 0.159144
vn -0.583212 0.792098 0.180124
vn -0.596781 0.793715 0.117767
vn -0.806455 0.569476 0.159144
vn -0.786798 0.567363 0.243000
vn -0.801463 0.569476 -0.182629
vn -0.779365 0.567363 -0.265876
vn -0.904296 0.295092 -0.308496
vn -0.931141 0.296575 -0.212179
vn -0.821920 0.569476 -0.012006
vn -0.801463 0.569476 -0.182629
vn -0.931141 0.296575 -0.212179
vn -0.954908 0.296575 -0.013948
vn -0.806455 0.569476 0.159144
vn -0.821920 0.569476 -0.012006
vn -0.954908 0.296575 -0.013948
vn -0.936941 0.296575 0.184894
vn -0.786798 0.567363 0.243000
vn -0.806455 0.569476 0.159144
vn -0.936941 0.296575 0.184894
vn -0.912920 0.295091 0.281954
vn -0.931141 0.296575 -0.212179
vn -0.904296 0.295092 -0.308496
vn -0.946442 0.000000 -0.322873
vn -0.975007 0.000000 -0.222175
vn -0.954908 0.296575 -0.013948
vn -0.931141 0.296575 -0.212179
vn -0.975007 0.000000 -0.222175
vn -0.999893 0.000000 -0.014604
vn -0.936941 0.296575 0.184894
vn -0.954908 0.296575 -0.013948
vn -0.999893 0.000000 -0.014604
vn -0.981080 0.000000 0.193603
vn -0.912920 0.295091 0.281954
vn -0.936941 0.296575 0.184894
vn -0.981080 0.000000 0.193603
vn -0.955468 0.000000 0.295094
vn -0.975007 0.000000 -0.222175
vn -0.946442 0.000000 -0.322873
vn -0.904296 -0.295092 -0.308496
vn -0.931141 -0.296575 -0.212179
vn -0.999893 0.000000 -0.014604
vn -0.975007 0.000000 -0.222175
vn -0.931141 -0.296575 -0.212179
vn -0.954908 -0.296575 -0.013948
vn -0.981080 0.000000 0.193603
vn -0.999893 0.000000 -0.014604
vn -0.954908 -0.296575 -0.013948
vn -0.936941 -0.296575 0.184894
vn -0.955468 0.000000 0.295094
vn -0.981080 0.000000 0.193603
vn -0.936941 -0.296575 0.184894
vn -0.912920 -0.295091 0.281954
vn -0.931141 -0.296575 -0.212179
vn -0.904296 -0.295092 -0.308496
vn -0.779365 -0.567362 -0.265876
vn -0.801463 -0.569476 -0.182629
vn -0.954908 -0.296575 -0.013948
vn -0.931141 -0.296575 -0.212179
vn -0.801463 -0.569476 -0.182629
vn -0.821920 -0.569476 -0.012006
vn -0.936941 -0.296575 0.184894
vn -0.954908 -0.296575 -0.013948
vn -0.821920 -0.569476 -0.012006
vn -0.806455 -0.569476 0.159144
vn -0.912920 -0.295091 0.281954
vn -0.936941 -0.296575 0.184894
vn -0.806455 -0.569476 0.159144
vn -0.786798 -0.567363 0.243000
vn -0.801463 -0.569476 -0.182629
vn -0.779365 -0.567362 -0.265876
vn -0.577704 -0.792097 -0.197080
vn -0.593088 -0.793714 -0.135147
vn -0.821920 -0.569476 -0.012006
vn -0.801463 -0.569476 -0.182629
vn -0.593088 -0.793714 -0.135147
vn -0.608225 -0.793715 -0.008884
vn -0.806455 -0.569476 0.159144
vn -0.821920 -0.569476 -0.012006
vn -0.608225 -0.793715 -0.008884
vn -0.596781 -0.793715 0.117767
vn -0.786798 -0.567363 0.243000
vn -0.806455 -0.569476 0.159144
vn -0.596781 -0.793715 0.117767
vn -0.583212 -0.792098 0.180124
vn -0.593088 -0.793714 -0.135147
vn -0.577704 -0.792097 -0.197080
vn -0.313585 -0.943515 -0.106978
vn -0.321472 -0.944081 -0.073254
vn -0.608225 -0.793715 -0.008884
vn -0.593088 -0.793714 -0.135147
vn -0.321472 -0.944081 -0.073254
vn -0.329678 -0.944081 -0.004815
vn -0.596781 -0.793715 0.117767
vn -0.608225 -0.793715 -0.008884
vn -0.329678 -0.944081 -0.004815
vn -0.323475 -0.944081 0.063834
vn -0.583212 -0.792098 0.180124
vn -0.596781 -0.793715 0.117767
vn -0.323475 -0.944081 0.063834
vn -0.316575 -0.943515 0.097773
vn -0.321472 -0.944081 -0.073254
vn -0.313585 -0.943515 -0.106978
vn -0.012357 -0.999915 -0.004215
vn -0.012660 -0.999916 -0.002884
vn -0.329678 -0.944081 -0.004815
vn -0.321472 -0.944081 -0.073254
vn -0.012660 -0.999916 -0.002884
vn -0.012983 -0.999916 -0.000189
vn -0.323475 -0.944081 0.063834
vn -0.329678 -0.944081 -0.004815
vn -0.012983 -0.999916 -0.000189
vn -0.012738 -0.999916 0.002513
vn -0.316575 -0.943515 0.097773
vn -0.323475 -0.944081 0.063834
vn -0.012738 -0.999916 0.002513
vn -0.012474 -0.999915 0.003853
vn -0.012660 -0.999916 -0.002884
vn -0.012357 -0.999915 -0.004215
vn 0.291530 -0.951378 0.099454
vn 0.298839 -0.951871 0.068097
vn -0.012983 -0.999916 -0.000189
vn -0.012660 -0.999916 -0.002884
vn 0.298839 -0.951871 0.068097
vn 0.306466 -0.951871 0.004476
vn -0.012738 -0.999916 0.002513
vn -0.012983 -0.999916 -0.000189
vn 0.306466 -0.951871 0.004476
vn 0.300700 -0.951871 -0.059340
vn -0.012474 -0.999915 0.003853
vn -0.012738 -0.999916 0.002513
vn 0.300700 -0.951871 -0.059340
vn 0.294311 -0.951377 -0.090897
vn 0.298839 -0.951871 0.068097
vn 0.291530 -0.951378 0.099454
vn 0.562290 -0.804384 0.191822
vn 0.577202 -0.805940 0.131527
vn 0.306466 -0.951871 0.004476
vn 0.298839 -0.951871 0.068097
vn 0.577202 -0.805940 0.131527
vn 0.591935 -0.805940 0.008646
vn 0.300700 -0.951871 -0.059340
vn 0.306466 -0.951871 0.004476
vn 0.591935 -0.805940 0.008646
vn 0.580797 -0.805940 -0.114613
vn 0.294311 -0.951377 -0.090897
vn 0.300700 -0.951871 -0.059340
vn 0.580797 -0.805940 -0.114613
vn 0.567653 -0.804384 -0.175318
vn 0.577202 -0.805940 0.131527
vn 0.562290 -0.804384 0.191822
vn 0.771564 -0.579143 0.263215
vn 0.793383 -0.581257 0.180789
vn 0.591935 -0.805940 0.008646
vn 0.577202 -0.805940 0.131527
vn 0.793383 -0.581257 0.180789
vn 0.813633 -0.581257 0.011884
vn 0.580797 -0.805940 -0.114613
vn 0.591935 -0.805940 0.008646
vn 0.813633 -0.581257 0.011884
vn 0.798324 -0.581257 -0.157539
vn 0.567653 -0.804384 -0.175318
vn 0.580797 -0.805940 -0.114613
vn 0.798324 -0.581257 -0.157539
vn 0.778922 -0.579143 -0.240568
vn 0.793383 -0.581257 0.180789
vn 0.771564 -0.579143 0.263215
vn 0.902211 -0.302133 0.307784
vn 0.928972 -0.303645 0.211685
vn 0.813633 -0.581257 0.011884
vn 0.793383 -0.581257 0.180789
vn 0.928972 -0.303645 0.211685
vn 0.952684 -0.303645 0.013915
vn 0.798324 -0.581257 -0.157539
vn 0.813633 -0.581257 0.011884
vn 0.952684 -0.303645 0.013915
vn 0.934758 -0.303645 -0.184463
vn 0.778922 -0.579143 -0.240568
vn 0.798324 -0.581257 -0.157539
vn 0.934758 -0.303645 -0.184463
vn 0.910815 -0.302134 -0.281303
vn 0.928972 -0.303645 0.211685
vn 0.902211 -0.302133 0.307784
vn 0.946442 0.000002 0.322873
vn 0.975007 0.000002 0.222175
vn 0.952684 -0.303645 0.013915
vn 0.928972 -0.303645 0.211685
vn 0.975007 0.000002 0.222175
vn 0.999893 0.000001 0.014604
vn 0.934758 -0.303645 -0.184463
vn 0.952684 -0.303645 0.013915
vn 0.999893 0.000001 0.014604
vn 0.981080 0.000001 -0.193604
vn 0.910815 -0.302134 -0.281303
vn 0.934758 -0.303645 -0.184463
vn 0.981080 0.000001 -0.193604
vn 0.955468 0.000000 -0.295095
vn 0.393352 0.000000 0.919388
vn 0.393351 0.000000 0.919388
vn 0.393351 0.000000 0.919388
vn 0.393351 0.000000 0.919388
vn 0.393352 0.000000 0.919388
vn 0.393351 0.000000 0.919388
vn 0.393352 0.000000 0.919388
vn 0.393351 0.000000 0.919388
vn 0.393351 0.000000 0.919388
vn 0.393351 0.000000 0.919388
vn 0.393351 0.000000 0.919388
vn 0.393352 0.000000 0.919388
vn 0.393351 0.000000 0.919388
vn 0.393351 0.000000 0.919388
vn 0.393352 0.000000 0.919388
vn 0.393351 0.000000 0.919388
vn 0.393352 0.000000 0.919388
vn 0.393352 0.000000 0.919388
vn 0.393352 0.000000 0.919388
vn 0.393351 0.000000 0.919388
vn 0.420035 0.000000 -0.907508
vn 0.420035 0.000000 -0.907508
vn 0.420035 0.000000 -0.907508
vn 0.420035 0.000000 -0.907508
vn 0.420035 0.000000 -0.907508
vn 0.420035 0.000000 -0.907508
vn 0.420035 0.000000 -0.907508
vn 0.420035 0.000000 -0.907508
vn 0.420035 0.000000 -0.907508
vn 0.420035 0.000000 -0.907508
vn 0.420035 0.000000 -0.907508
vn 0.420035 0.000000 -0.907508
vn 0.420035 0.000000 -0.907508
vn 0.420035 0.000000 -0.907508
vn 0.420035 0.000000 -0.907508
vn 0.420035 0.000000 -0.907508
vn 0.420035 0.000000 -0.907508
vn 0.420035 0.000000 -0.907508
vn 0.420035 0.000000 -0.907508
vn 0.420035 0.000000 -0.907508
vn -0.939583 0.000000 -0.342322
vn -0.981853 0.000000 -0.189644
vn -0.981853 0.000000 -0.189644
vn -0.939583 0.000000 -0.342322
vn -0.981853 0.000000 -0.189644
vn -0.992409 0.000000 0.122979
vn -0.992409 0.000000 0.122979
vn -0.981853 0.000000 -0.189644
vn -0.992409 0.000000 0.122979
vn -0.961380 0.000000 0.275223
vn -0.961380 0.000000 0.275223
vn -0.992409 0.000000 0.122979
vn 0.000000 -1.000000 0.000000
vn 0.000000 -1.000000 0.000000
vn 0.000000 -1.000000 0.000000
vn 0.000000 -1.000000 0.000000
vn 0.000000 -1.000000 0.000000
vn 0.000000 -1.000000 0.000000
vn 0.000000 -1.000000 0.000000
vn 0.000000 -1.000000 0.000000
vn 0.000000 -1.000000 0.000000
vn 0.000000 1.000000 0.000000
vn 0.000000 1.000000 0.000000
vn 0.000000 1.000000 0.000000
vn 0.000000 1.000000 0.000000
vn 0.000000 1.000000 0.000000
vn 0.000000 1.000000 0.000000
vn 0.000000 1.000000 0.000000
vn 0.000000 1.000000 0.000000
vn 0.000000 1.000000 0.000000
vn 0.408554 0.000000 0.912734
vn 0.408554 0.000000 0.912734
vn 0.408554 0.000000 0.912734
vn 0.408554 0.000000 0.912734
vn 0.498180 0.000000 -0.867074
vn 0.498180 0.000000 -0.867074
vn 0.498180 0.000000 -0.867074
vn 0.498180 0.000000 -0.867074
s off
g RebanadaPizza:pTorus3
usemtl RebanadaPizza:lambert2SG
f 2/1/1 1/2/2 6/3/3 7/4/4
f 3/5/5 2/1/6 7/4/7 8/6/8
f 4/7/9 3/5/10 8/6/11 9/8/12
f 5/9/13 4/7/14 9/8/15 10/10/16
f 7/4/17 6/3/18 11/11/19 12/12/20
f 8/6/21 7/4/22 12/12/23 13/13/24
f 9/8/25 8/6/26 13/13/27 14/14/28
f 10/10/29 9/8/30 14/14/31 15/15/32
f 12/12/33 11/11/34 16/16/35 17/17/36
f 13/13/37 12/12/38 17/17/39 18/18/40
f 14/14/41 13/13/42 18/18/43 19/19/44
f 15/15/45 14/14/46 19/19/47 20/20/48
f 17/17/49 16/16/50 21/21/51 22/22/52
f 18/18/53 17/17/54 22/22/55 23/23/56
f 19/19/57 18/18/58 23/23/59 24/24/60
f 20/20/61 19/19/62 24/24/63 25/25/64
f 22/22/65 21/21/66 26/26/67 27/27/68
f 23/23/69 22/22/70 27/27/71 28/28/72
f 24/24/73 23/23/74 28/28/75 29/29/76
f 25/25/77 24/24/78 29/29/79 30/30/80
f 27/27/81 26/26/82 31/31/83 32/32/84
f 28/28/85 27/27/86 32/32/87 33/33/88
f 29/29/89 28/28/90 33/33/91 34/34/92
f 30/30/93 29/29/94 34/34/95 35/35/96
f 32/32/97 31/31/98 36/36/99 37/37/100
f 33/33/101 32/32/102 37/37/103 38/38/104
f 34/34/105 33/33/106 38/38/107 39/39/108
f 35/35/109 34/34/110 39/39/111 40/40/112
f 37/37/113 36/36/114 41/41/115 42/42/116
f 38/38/117 37/37/118 42/42/119 43/43/120
f 39/39/121 38/38/122 43/43/123 44/44/124
f 40/40/125 39/39/126 44/44/127 45/45/128
f 42/42/129 41/41/130 46/46/131 47/47/132
f 43/43/133 42/42/134 47/47/135 48/48/136
f 44/44/137 43/43/138 48/48/139 49/49/140
f 45/45/141 44/44/142 49/49/143 50/50/144
f 47/47/145 46/46/146 51/51/147 52/52/148
f 48/48/149 47/47/150 52/52/151 53/53/152
f 49/49/153 48/48/154 53/53/155 54/54/156
f 50/50/157 49/49/158 54/54/159 55/55/160
f 52/52/161 51/51/162 56/56/163 57/57/164
f 53/53/165 52/52/166 57/57/167 58/58/168
f 54/54/169 53/53/170 58/58/171 59/59/172
f 55/55/173 54/54/174 59/59/175 60/60/176
f 57/57/177 56/56/178 61/61/179 62/62/180
f 58/58/181 57/57/182 62/62/183 63/63/184
f 59/59/185 58/58/186 63/63/187 64/64/188
f 60/60/189 59/59/190 64/64/191 65/65/192
f 62/62/193 61/61/194 66/66/195 67/67/196
f 63/63/197 62/62/198 67/67/199 68/68/200
f 64/64/201 63/63/202 68/68/203 69/69/204
f 65/65/205 64/64/206 69/69/207 70/70/208
f 67/67/209 66/66/210 71/71/211 72/72/212
f 68/68/213 67/67/214 72/72/215 73/73/216
f 69/69/217 68/68/218 73/73/219 74/74/220
f 70/70/221 69/69/222 74/74/223 75/75/224
f 72/72/225 71/71/226 76/76/227 77/77/228
f 73/73/229 72/72/230 77/77/231 78/78/232
f 74/74/233 73/73/234 78/78/235 79/79/236
f 75/75/237 74/74/238 79/79/239 80/80/240
f 77/77/241 76/76/242 81/81/243 82/82/244
f 78/78/245 77/77/246 82/82/247 83/83/248
f 79/79/249 78/78/250 83/83/251 84/84/252
f 80/80/253 79/79/254 84/84/255 85/85/256
f 82/82/257 81/81/258 86/86/259 87/87/260
f 83/83/261 82/82/262 87/87/263 88/88/264
f 84/84/265 83/83/266 88/88/267 89/89/268
f 85/85/269 84/84/270 89/89/271 90/90/272
f 87/87/273 86/86/274 91/91/275 92/92/276
f 88/88/277 87/87/278 92/92/279 93/93/280
f 89/89/281 88/88/282 93/93/283 94/94/284
f 90/90/285 89/89/286 94/94/287 95/95/288
f 92/92/289 91/91/290 96/96/291 97/97/292
f 93/93/293 92/92/294 97/97/295 98/98/296
f 94/94/297 93/93/298 98/98/299 99/99/300
f 95/95/301 94/94/302 99/99/303 100/100/304
f 97/97/305 96/96/306 1/101/307 2/102/308
f 98/98/309 97/97/310 2/102/311 3/103/312
f 99/99/313 98/98/314 3/103/315 4/104/316
f 100/100/317 99/99/318 4/104/319 5/105/320
f 10/10/321 15/15/322 20/20/323 25/25/324 30/30/325 35/35/326 40/40/327 45/45/328 50/50/329 55/55/330 60/60/331 65/65/332 70/70/333 75/75/334 80/80/335 85/85/336 90/90/337 95/95/338 100/100/339 5/9/340
f 6/3/341 1/101/342 96/96/343 91/91/344 86/86/345 81/81/346 76/76/347 71/71/348 66/66/349 61/61/350 56/56/351 51/51/352 46/46/353 41/41/354 36/36/355 31/31/356 26/26/357 21/21/358 16/16/359 11/11/360
usemtl RebanadaPizza:initialShadingGroup
f 101/106/361 102/107/362 106/108/363 105/109/364
f 102/107/365 103/110/366 107/111/367 106/108/368
f 103/110/369 104/112/370 108/113/371 107/111/372
usemtl RebanadaPizza:lambert2SG
f 102/114/373 101/115/374 109/116/375
f 103/117/376 102/114/377 109/116/378
f 104/118/379 103/119/380 109/120/381
usemtl RebanadaPizza:lambert3SG
f 105/121/382 106/122/383 110/123/384
f 106/124/385 107/125/386 110/126/387
f 107/127/388 108/128/389 110/129/390
usemtl RebanadaPizza:lambert2SG
f 104/130/391 109/131/392 110/132/393 108/133/394
f 105/121/395 110/132/396 109/116/397 101/106/398
