# This file uses centimeters as units for non-parametric coordinates.

mtllib BaseCaja.mtl
g default
v -0.789000 1.501682 7.201232
v 0.789000 1.501682 7.201232
v 0.789000 1.501682 5.623232
v -0.789000 1.501682 5.623232
v -0.783767 1.702757 7.199267
v -0.783767 1.504494 7.199267
v 0.794233 1.504494 7.199267
v 0.794233 1.702757 7.199267
v -0.787086 1.688739 5.624163
v -0.787086 1.490475 5.624163
v 0.790914 1.490475 5.624163
v 0.790914 1.688739 5.624163
v 0.784006 1.707143 7.197964
v 0.784006 1.508879 7.197964
v 0.784006 1.508879 5.619964
v 0.784006 1.707143 5.619964
v -0.792082 1.689209 7.182749
v -0.792082 1.493097 7.182749
v -0.792082 1.493097 5.649577
v -0.792082 1.689209 5.649577
vt 0.335772 0.000150
vt 0.335772 0.335772
vt 0.000150 0.335772
vt 0.000150 0.000150
vt 0.671694 0.620433
vt 0.671694 0.662602
vt 0.336071 0.662602
vt 0.336071 0.620433
vt 0.378406 0.662901
vt 0.378406 0.705070
vt 0.042784 0.705070
vt 0.042784 0.662901
vt 0.378539 0.000150
vt 0.420708 0.000150
vt 0.420708 0.335772
vt 0.378539 0.335772
vt 0.463475 0.000150
vt 0.505185 0.000150
vt 0.505186 0.326238
vt 0.463475 0.326238
vn -0.000000 1.000000 -0.000000
vn -0.000000 1.000000 -0.000000
vn -0.000000 1.000000 -0.000000
vn -0.000000 1.000000 -0.000000
vn 0.000000 0.000000 1.000000
vn 0.000000 0.000000 1.000000
vn 0.000000 0.000000 1.000000
vn 0.000000 0.000000 1.000000
vn 0.000000 0.000000 1.000000
vn 0.000000 0.000000 1.000000
vn 0.000000 0.000000 1.000000
vn 0.000000 0.000000 1.000000
vn 1.000000 0.000000 0.000000
vn 1.000000 0.000000 0.000000
vn 1.000000 0.000000 0.000000
vn 1.000000 0.000000 0.000000
vn 1.000000 0.000000 0.000000
vn 1.000000 0.000000 0.000000
vn 1.000000 0.000000 0.000000
vn 1.000000 0.000000 0.000000
s off
g BaseCaja:Mesh
usemtl BaseCaja:Material_001
f 1/1/1 2/2/2 3/3/3 4/4/4
f 5/5/5 6/6/6 7/7/7 8/8/8
f 9/9/9 10/10/10 11/11/11 12/12/12
f 13/13/13 14/14/14 15/15/15 16/16/16
f 17/17/17 18/18/18 19/19/19 20/20/20
