# Blender 3.1.0
# www.blender.org
mtllib CajaPizza.mtl
o Plane.006
v -1.016610 0.241964 0.210671
v 0.397604 1.656177 0.210671
v 0.397604 1.656177 -1.735148
v -1.016610 0.241964 -1.735148
v -1.000000 -0.000000 0.228505
v 1.000000 -0.000000 0.228505
v 1.000000 0.000000 -1.771495
v -1.000000 0.000000 -1.771495
v -0.993367 0.254848 0.226015
v -0.993367 0.003563 0.226015
v 1.006633 0.003563 0.226015
v 1.006633 0.254848 0.226015
v -0.997574 0.237081 -1.770315
v -0.997574 -0.014205 -1.770315
v 1.002426 -0.014204 -1.770314
v 1.002426 0.237081 -1.770314
v 0.993671 0.260407 0.224364
v 0.993671 0.009121 0.224364
v 0.993671 0.009121 -1.775636
v 0.993671 0.260407 -1.775636
v -1.003906 0.237677 0.205080
v -1.003906 -0.010881 0.205080
v -1.003906 -0.010881 -1.738104
v -1.003906 0.237677 -1.738104
v -1.029054 0.233335 0.194860
v -0.789340 0.116273 0.194860
v 0.502477 1.408090 0.194860
v 0.390749 1.653138 0.194860
v -1.010316 0.251679 -1.738206
v -0.771546 0.135078 -1.738206
v 0.515185 1.421809 -1.738206
v 0.403897 1.665893 -1.738206
v 0.401096 1.654246 -1.736067
v 0.578781 1.476560 -1.652753
v 0.578781 1.476560 0.102252
v 0.401096 1.654246 0.192814
vn -0.7071 0.7071 -0.0000
vn -0.0000 1.0000 -0.0000
vn -0.0000 -0.0000 1.0000
vn 1.0000 -0.0000 -0.0000
vn -0.7071 -0.7071 -0.0000
vt 0.000150 0.336071
vt 0.335772 0.336071
vt 0.335772 0.662602
vt 0.000150 0.662602
vt 0.335772 0.000150
vt 0.335772 0.335772
vt 0.000150 0.335772
vt 0.000150 0.000150
vt 0.671694 0.620433
vt 0.671694 0.662602
vt 0.336071 0.662602
vt 0.336071 0.620433
vt 0.378406 0.662901
vt 0.378406 0.705070
vt 0.042784 0.705070
vt 0.042784 0.662901
vt 0.378539 0.000150
vt 0.420708 0.000150
vt 0.420708 0.335772
vt 0.378539 0.335772
vt 0.463475 0.000150
vt 0.505185 0.000150
vt 0.505186 0.326238
vt 0.463475 0.326238
vt 0.042485 0.999851
vt 0.000150 0.985296
vt 0.000150 0.678721
vt 0.042485 0.662901
vt 0.378240 0.335772
vt 0.336072 0.321275
vt 0.336071 0.015907
vt 0.378240 0.000150
vt 0.463176 0.323838
vt 0.421007 0.309856
vt 0.421007 0.015347
vt 0.463176 0.000150
s 1
usemtl Material.001
f 1/1/1 2/2/1 3/3/1 4/4/1
f 5/5/2 6/6/2 7/7/2 8/8/2
f 9/9/3 10/10/3 11/11/3 12/12/3
f 13/13/3 14/14/3 15/15/3 16/16/3
f 17/17/4 18/18/4 19/19/4 20/20/4
f 21/21/4 22/22/4 23/23/4 24/24/4
f 25/25/3 26/26/3 27/27/3 28/28/3
f 29/29/3 30/30/3 31/31/3 32/32/3
f 33/33/5 34/34/5 35/35/5 36/36/5
